<svg version="1.1" xmlns="http://www.w3.org/2000/svg" viewBox="0 0 564.2597707051951 319.78855204806973" width="564.2597707051951" height="319.78855204806973" class="excalidraw-svg">
  <!-- svg-source:excalidraw -->
  
  <defs>
    <style class="style-fonts">
      @font-face {
        font-family: "Virgil";
        src: url("https://excalidraw.com/Virgil.woff2");
      }
      @font-face {
        font-family: "Cascadia";
        src: url("https://excalidraw.com/Cascadia.woff2");
      }
      @font-face {
        font-family: "Assistant";
        src: url("https://excalidraw.com/Assistant-Regular.woff2");
      }
    </style>
    
  </defs>
  <g stroke-linecap="round" transform="translate(384.1686920655441 13.78649697811693) rotate(0 85.04553931982551 42.36058894087262)"><path d="M21.18 0 C59.67 0, 98.17 0, 148.91 0 M21.18 0 C47.64 0, 74.1 0, 148.91 0 M148.91 0 C163.03 0, 170.09 7.06, 170.09 21.18 M148.91 0 C163.03 0, 170.09 7.06, 170.09 21.18 M170.09 21.18 C170.09 35.37, 170.09 49.55, 170.09 63.54 M170.09 21.18 C170.09 33.72, 170.09 46.26, 170.09 63.54 M170.09 63.54 C170.09 77.66, 163.03 84.72, 148.91 84.72 M170.09 63.54 C170.09 77.66, 163.03 84.72, 148.91 84.72 M148.91 84.72 C116.34 84.72, 83.77 84.72, 21.18 84.72 M148.91 84.72 C103.85 84.72, 58.8 84.72, 21.18 84.72 M21.18 84.72 C7.06 84.72, 0 77.66, 0 63.54 M21.18 84.72 C7.06 84.72, 0 77.66, 0 63.54 M0 63.54 C0 46.75, 0 29.97, 0 21.18 M0 63.54 C0 49.1, 0 34.66, 0 21.18 M0 21.18 C0 7.06, 7.06 0, 21.18 0 M0 21.18 C0 7.06, 7.06 0, 21.18 0" stroke="#1e1e1e" stroke-width="2" fill="none"></path></g><g transform="translate(415.25329388536966 46.94708591898954) rotate(0 53.960937499999986 9.2)"><text x="53.9609375" y="14.720312499999999" font-family="Helvetica, Segoe UI Emoji" font-size="16px" fill="#1e1e1e" text-anchor="middle" style="white-space: pre;" direction="ltr" dominant-baseline="alphabetic">TinySoundFont</text></g><g stroke-linecap="round" transform="translate(11.321472715411858 225.0673741663245) rotate(0 85.04553931982551 42.36058894087262)"><path d="M21.18 0 C47.52 0, 73.85 0, 148.91 0 M21.18 0 C48.63 0, 76.08 0, 148.91 0 M148.91 0 C163.03 0, 170.09 7.06, 170.09 21.18 M148.91 0 C163.03 0, 170.09 7.06, 170.09 21.18 M170.09 21.18 C170.09 35.85, 170.09 50.51, 170.09 63.54 M170.09 21.18 C170.09 37.56, 170.09 53.93, 170.09 63.54 M170.09 63.54 C170.09 77.66, 163.03 84.72, 148.91 84.72 M170.09 63.54 C170.09 77.66, 163.03 84.72, 148.91 84.72 M148.91 84.72 C120.73 84.72, 92.55 84.72, 21.18 84.72 M148.91 84.72 C102.18 84.72, 55.46 84.72, 21.18 84.72 M21.18 84.72 C7.06 84.72, 0 77.66, 0 63.54 M21.18 84.72 C7.06 84.72, 0 77.66, 0 63.54 M0 63.54 C0 50.22, 0 36.89, 0 21.18 M0 63.54 C0 49.44, 0 35.35, 0 21.18 M0 21.18 C0 7.06, 7.06 0, 21.18 0 M0 21.18 C0 7.06, 7.06 0, 21.18 0" stroke="#1e1e1e" stroke-width="2" fill="none"></path></g><g transform="translate(80.80451203523737 258.2279631071971) rotate(0 15.5625 9.200000000000003)"><text x="15.5625" y="14.720312499999999" font-family="Helvetica, Segoe UI Emoji" font-size="16px" fill="#1e1e1e" text-anchor="middle" style="white-space: pre;" direction="ltr" dominant-baseline="alphabetic">SDL</text></g><g stroke-linecap="round" transform="translate(10 10) rotate(0 85.04553931982551 42.36058894087262)"><path d="M21.18 0 C69.9 0, 118.61 0, 148.91 0 M21.18 0 C49.55 0, 77.91 0, 148.91 0 M148.91 0 C163.03 0, 170.09 7.06, 170.09 21.18 M148.91 0 C163.03 0, 170.09 7.06, 170.09 21.18 M170.09 21.18 C170.09 31.93, 170.09 42.68, 170.09 63.54 M170.09 21.18 C170.09 33.65, 170.09 46.12, 170.09 63.54 M170.09 63.54 C170.09 77.66, 163.03 84.72, 148.91 84.72 M170.09 63.54 C170.09 77.66, 163.03 84.72, 148.91 84.72 M148.91 84.72 C104.55 84.72, 60.19 84.72, 21.18 84.72 M148.91 84.72 C113.6 84.72, 78.28 84.72, 21.18 84.72 M21.18 84.72 C7.06 84.72, 0 77.66, 0 63.54 M21.18 84.72 C7.06 84.72, 0 77.66, 0 63.54 M0 63.54 C0 51.6, 0 39.65, 0 21.18 M0 63.54 C0 53.76, 0 43.98, 0 21.18 M0 21.18 C0 7.06, 7.06 0, 21.18 0 M0 21.18 C0 7.06, 7.06 0, 21.18 0" stroke="#1e1e1e" stroke-width="2" fill="none"></path></g><g transform="translate(67.02991431982551 43.160588940872614) rotate(0 28.015625 9.2)"><text x="28.015625" y="14.720312499999999" font-family="Helvetica, Segoe UI Emoji" font-size="16px" fill="#1e1e1e" text-anchor="middle" style="white-space: pre;" direction="ltr" dominant-baseline="alphabetic">Chordel</text></g><g mask="url(#mask-PmgDBM7zuhmhsd7L-O75j)" stroke-linecap="round"><g transform="translate(194.42158504909543 39.871913969117244) rotate(0 89.37806893715151 -5.325317283880619)"><path d="M0 0 C14.92 -2.23, 59.75 -13.83, 89.55 -13.38 C119.34 -12.92, 163.89 0.04, 178.76 2.73 M0 0 C14.92 -2.23, 59.75 -13.83, 89.55 -13.38 C119.34 -12.92, 163.89 0.04, 178.76 2.73" stroke="#1e1e1e" stroke-width="2" fill="none"></path></g><g transform="translate(194.42158504909543 39.871913969117244) rotate(0 89.37806893715151 -5.325317283880619)"><path d="M153.96 5.87 C158.96 5.24, 163.96 4.6, 178.76 2.73 M153.96 5.87 C162.1 4.84, 170.25 3.81, 178.76 2.73" stroke="#1e1e1e" stroke-width="2" fill="none"></path></g><g transform="translate(194.42158504909543 39.871913969117244) rotate(0 89.37806893715151 -5.325317283880619)"><path d="M157.73 -10.8 C161.98 -8.07, 166.22 -5.34, 178.76 2.73 M157.73 -10.8 C164.64 -6.36, 171.54 -1.92, 178.76 2.73" stroke="#1e1e1e" stroke-width="2" fill="none"></path></g></g><mask id="mask-PmgDBM7zuhmhsd7L-O75j"><rect x="0" y="0" fill="#fff" width="473.17772292339845" height="155.97542778565122"></rect><rect x="250.27544567806774" y="17.294839776969624" fill="#000" width="67.3828125" height="18.4" opacity="1"></rect></mask><g transform="translate(250.27544567806774 17.294839776969624) rotate(0 33.524208308179226 17.24526084180505)"><text x="33.69140625" y="14.720312499999999" font-family="Helvetica, Segoe UI Emoji" font-size="16px" fill="#1e1e1e" text-anchor="middle" style="white-space: pre;" direction="ltr" dominant-baseline="alphabetic">"Play C4"</text></g><g mask="url(#mask-9tTVHCQTiSdqF5HDWhHDR)" stroke-linecap="round"><g transform="translate(378.30275381499945 81.22044411731991) rotate(0 -93.14842465664884 7.949114124685897)"><path d="M0 0 C-15.86 3.83, -64.1 24.15, -95.15 22.97 C-126.2 21.79, -171.11 -2.07, -186.3 -7.08 M0 0 C-15.86 3.83, -64.1 24.15, -95.15 22.97 C-126.2 21.79, -171.11 -2.07, -186.3 -7.08" stroke="#1e1e1e" stroke-width="2" fill="none"></path></g><g transform="translate(378.30275381499945 81.22044411731991) rotate(0 -93.14842465664884 7.949114124685897)"><path d="M-161.32 -6.01 C-170.51 -6.4, -179.7 -6.79, -186.3 -7.08 M-161.32 -6.01 C-166.87 -6.25, -172.42 -6.48, -186.3 -7.08" stroke="#1e1e1e" stroke-width="2" fill="none"></path></g><g transform="translate(378.30275381499945 81.22044411731991) rotate(0 -93.14842465664884 7.949114124685897)"><path d="M-167.85 9.8 C-174.63 3.59, -181.42 -2.62, -186.3 -7.08 M-167.85 9.8 C-171.95 6.05, -176.05 2.3, -186.3 -7.08" stroke="#1e1e1e" stroke-width="2" fill="none"></path></g></g><mask id="mask-9tTVHCQTiSdqF5HDWhHDR"><rect x="0" y="0" fill="#fff" width="664.5996031282971" height="211.26880566535138"></rect><rect x="246.25828080533262" y="94.99373901602154" fill="#000" width="73.796875" height="18.4" opacity="1"></rect></mask><g transform="translate(246.25828080533262 94.99373901602154) rotate(0 38.89604835301799 -5.799525077293355)"><text x="36.8984375" y="14.720312499999999" font-family="Helvetica, Segoe UI Emoji" font-size="16px" fill="#1e1e1e" text-anchor="middle" style="white-space: pre;" direction="ltr" dominant-baseline="alphabetic">PCM Data</text></g><g mask="url(#mask-48LiP0oN8cPEL3kwksbSr)" stroke-linecap="round"><g transform="translate(99.02055907971976 103.7763435346983) rotate(0 1.7571274394355925 55.9570992758065)"><path d="M0 0 C0.59 8.07, 3.45 29.79, 3.51 48.44 C3.58 67.09, 0.91 101.33, 0.38 111.91 M0 0 C0.59 8.07, 3.45 29.79, 3.51 48.44 C3.58 67.09, 0.91 101.33, 0.38 111.91" stroke="#1e1e1e" stroke-width="2" fill="none"></path></g><g transform="translate(99.02055907971976 103.7763435346983) rotate(0 1.7571274394355925 55.9570992758065)"><path d="M-6.7 87.94 C-4.69 94.74, -2.68 101.55, 0.38 111.91 M-6.7 87.94 C-4.21 96.37, -1.72 104.81, 0.38 111.91" stroke="#1e1e1e" stroke-width="2" fill="none"></path></g><g transform="translate(99.02055907971976 103.7763435346983) rotate(0 1.7571274394355925 55.9570992758065)"><path d="M10.37 88.99 C7.53 95.5, 4.7 102, 0.38 111.91 M10.37 88.99 C6.86 97.06, 3.34 105.12, 0.38 111.91" stroke="#1e1e1e" stroke-width="2" fill="none"></path></g></g><mask id="mask-48LiP0oN8cPEL3kwksbSr"><rect x="0" y="0" fill="#fff" width="202.53481395859095" height="315.6905420863113"></rect><rect x="47.851220208590945" y="143.01494131990648" fill="#000" width="109.3671875" height="18.4" opacity="1"></rect></mask><g transform="translate(47.851220208590945 143.01494131990648) rotate(0 52.92703074384251 16.718501490598328)"><text x="54.68359375" y="14.720312499999999" font-family="Helvetica, Segoe UI Emoji" font-size="16px" fill="#1e1e1e" text-anchor="middle" style="white-space: pre;" direction="ltr" dominant-baseline="alphabetic">Play PCM Data</text></g></svg>