<svg version="1.1" xmlns="http://www.w3.org/2000/svg" viewBox="0 0 1173.808064121141 481.8850368447431" width="1173.808064121141" height="481.8850368447431" class="excalidraw-svg">
  <!-- svg-source:excalidraw -->
  
  <defs>
    <style class="style-fonts">
      @font-face {
        font-family: "Virgil";
        src: url("https://excalidraw.com/Virgil.woff2");
      }
      @font-face {
        font-family: "Cascadia";
        src: url("https://excalidraw.com/Cascadia.woff2");
      }
      @font-face {
        font-family: "Assistant";
        src: url("https://excalidraw.com/Assistant-Regular.woff2");
      }
    </style>
    
  </defs>
  <g stroke-linecap="round" transform="translate(541.2957364080612 85.78783362056015) rotate(0 90.91767742028924 56.339023240279175)"><path d="M28.17 0 C70.13 0, 112.08 0, 153.67 0 M28.17 0 C71.89 0, 115.61 0, 153.67 0 M153.67 0 C172.45 0, 181.84 9.39, 181.84 28.17 M153.67 0 C172.45 0, 181.84 9.39, 181.84 28.17 M181.84 28.17 C181.84 50.04, 181.84 71.92, 181.84 84.51 M181.84 28.17 C181.84 41.26, 181.84 54.36, 181.84 84.51 M181.84 84.51 C181.84 103.29, 172.45 112.68, 153.67 112.68 M181.84 84.51 C181.84 103.29, 172.45 112.68, 153.67 112.68 M153.67 112.68 C113.7 112.68, 73.73 112.68, 28.17 112.68 M153.67 112.68 C110.94 112.68, 68.22 112.68, 28.17 112.68 M28.17 112.68 C9.39 112.68, 0 103.29, 0 84.51 M28.17 112.68 C9.39 112.68, 0 103.29, 0 84.51 M0 84.51 C0 62.62, 0 40.73, 0 28.17 M0 84.51 C0 67.47, 0 50.44, 0 28.17 M0 28.17 C0 9.39, 9.39 0, 28.17 0 M0 28.17 C0 9.39, 9.39 0, 28.17 0" stroke="#1e1e1e" stroke-width="2" fill="none"></path></g><g transform="translate(597.19388257835 130.62685686083933) rotate(0 35.01953125 11.5)"><text x="35.01953125" y="18.400390625" font-family="Helvetica, Segoe UI Emoji" font-size="20px" fill="#1e1e1e" text-anchor="middle" style="white-space: pre;" direction="ltr" dominant-baseline="alphabetic">Chordel</text></g><g mask="url(#mask-ihf8Iy_yKXFrg-0K3MIaa)" stroke-linecap="round"><g transform="translate(525.7855690988381 142.85424011215468) rotate(0 -146.88595186647308 -26.858305664065256)"><path d="M0 0 C-22.78 -9.22, -87.7 -55.57, -136.67 -55.3 C-185.63 -55.04, -267.59 -7.89, -293.77 1.59 M0 0 C-22.78 -9.22, -87.7 -55.57, -136.67 -55.3 C-185.63 -55.04, -267.59 -7.89, -293.77 1.59" stroke="#1e1e1e" stroke-width="2" fill="none"></path></g><g transform="translate(525.7855690988381 142.85424011215468) rotate(0 -146.88595186647308 -26.858305664065256)"><path d="M-24.83 -2.92 C-15.42 -1.81, -6.01 -0.71, 0 0 M-24.83 -2.92 C-19.36 -2.28, -13.9 -1.64, 0 0" stroke="#1e1e1e" stroke-width="2" fill="none"></path></g><g transform="translate(525.7855690988381 142.85424011215468) rotate(0 -146.88595186647308 -26.858305664065256)"><path d="M-17.14 -18.2 C-10.64 -11.3, -4.15 -4.4, 0 0 M-17.14 -18.2 C-13.37 -14.19, -9.6 -10.19, 0 0" stroke="#1e1e1e" stroke-width="2" fill="none"></path></g></g><mask id="mask-ihf8Iy_yKXFrg-0K3MIaa"><rect x="0" y="0" fill="#fff" width="919.5574728317843" height="299.74639401234276"></rect><rect x="329.08103155963727" y="64.54985749799539" fill="#000" width="120.078125" height="46" opacity="1"></rect></mask><g transform="translate(329.08103155963727 64.54985749799539) rotate(0 49.81858567272775 51.44551265300538)"><text x="60.0390625" y="18.400390625" font-family="Helvetica, Segoe UI Emoji" font-size="20px" fill="#1e1e1e" text-anchor="middle" style="white-space: pre;" direction="ltr" dominant-baseline="alphabetic">Receive</text><text x="60.0390625" y="41.400390625" font-family="Helvetica, Segoe UI Emoji" font-size="20px" fill="#1e1e1e" text-anchor="middle" style="white-space: pre;" direction="ltr" dominant-baseline="alphabetic">pressed pads</text></g><g stroke-linecap="round" transform="translate(980.9604078711409 88.04037679053727) rotate(0 91.423828125 52.14453125)"><path d="M26.07 0 C76.12 0, 126.16 0, 156.78 0 M26.07 0 C52.96 0, 79.85 0, 156.78 0 M156.78 0 C174.16 0, 182.85 8.69, 182.85 26.07 M156.78 0 C174.16 0, 182.85 8.69, 182.85 26.07 M182.85 26.07 C182.85 37.73, 182.85 49.38, 182.85 78.22 M182.85 26.07 C182.85 42.84, 182.85 59.6, 182.85 78.22 M182.85 78.22 C182.85 95.6, 174.16 104.29, 156.78 104.29 M182.85 78.22 C182.85 95.6, 174.16 104.29, 156.78 104.29 M156.78 104.29 C130.57 104.29, 104.37 104.29, 26.07 104.29 M156.78 104.29 C124.52 104.29, 92.26 104.29, 26.07 104.29 M26.07 104.29 C8.69 104.29, 0 95.6, 0 78.22 M26.07 104.29 C8.69 104.29, 0 95.6, 0 78.22 M0 78.22 C0 61.52, 0 44.82, 0 26.07 M0 78.22 C0 58.33, 0 38.45, 0 26.07 M0 26.07 C0 8.69, 8.69 0, 26.07 0 M0 26.07 C0 8.69, 8.69 0, 26.07 0" stroke="#1e1e1e" stroke-width="2" fill="none"></path></g><g transform="translate(1004.9330641211409 128.68490804053727) rotate(0 67.451171875 11.5)"><text x="67.451171875" y="18.400390625" font-family="Helvetica, Segoe UI Emoji" font-size="20px" fill="#1e1e1e" text-anchor="middle" style="white-space: pre;" direction="ltr" dominant-baseline="alphabetic">TinySoundFont</text></g><g mask="url(#mask-tjWoc5ffB5lncjbNVp7lK)" stroke-linecap="round"><g transform="translate(977.3530322768256 140.5778806639089) rotate(0 -121.21421141125938 -0.9690558704427303)"><path d="M0 0 C-40.4 -0.32, -202.02 -1.62, -242.43 -1.94 M0 0 C-40.4 -0.32, -202.02 -1.62, -242.43 -1.94" stroke="#1e1e1e" stroke-width="2" fill="none"></path></g><g transform="translate(977.3530322768256 140.5778806639089) rotate(0 -121.21421141125938 -0.9690558704427303)"><path d="M-23.56 8.36 C-16.03 5.69, -8.5 3.02, 0 0 M-23.56 8.36 C-17.2 6.1, -10.83 3.84, 0 0" stroke="#1e1e1e" stroke-width="2" fill="none"></path></g><g transform="translate(977.3530322768256 140.5778806639089) rotate(0 -121.21421141125938 -0.9690558704427303)"><path d="M-23.42 -8.74 C-15.94 -5.94, -8.45 -3.15, 0 0 M-23.42 -8.74 C-17.1 -6.38, -10.77 -4.02, 0 0" stroke="#1e1e1e" stroke-width="2" fill="none"></path></g></g><mask id="mask-tjWoc5ffB5lncjbNVp7lK"><rect x="0" y="0" fill="#fff" width="1319.7814550993444" height="242.51599240479436"></rect><rect x="801.6612818030662" y="128.10882479346606" fill="#000" width="108.955078125" height="23" opacity="1"></rect></mask><g transform="translate(801.6612818030662 128.10882479346606) rotate(0 54.4775390625 11.500000000000114)"><text x="54.4775390625" y="18.400390625" font-family="Helvetica, Segoe UI Emoji" font-size="20px" fill="#1e1e1e" text-anchor="middle" style="white-space: pre;" direction="ltr" dominant-baseline="alphabetic">Play sounds</text></g><g stroke-linecap="round" transform="translate(10 55.290556501475294) rotate(0 124.95015726054044 208.29724017163392)"><path d="M32 0 C69.22 0, 106.45 0, 217.9 0 M32 0 C74.04 0, 116.08 0, 217.9 0 M217.9 0 C239.23 0, 249.9 10.67, 249.9 32 M217.9 0 C239.23 0, 249.9 10.67, 249.9 32 M249.9 32 C249.9 116.51, 249.9 201.01, 249.9 384.59 M249.9 32 C249.9 162.01, 249.9 292.02, 249.9 384.59 M249.9 384.59 C249.9 405.93, 239.23 416.59, 217.9 416.59 M249.9 384.59 C249.9 405.93, 239.23 416.59, 217.9 416.59 M217.9 416.59 C166.27 416.59, 114.64 416.59, 32 416.59 M217.9 416.59 C144.77 416.59, 71.64 416.59, 32 416.59 M32 416.59 C10.67 416.59, 0 405.93, 0 384.59 M32 416.59 C10.67 416.59, 0 405.93, 0 384.59 M0 384.59 C0 253.01, 0 121.42, 0 32 M0 384.59 C0 310.6, 0 236.61, 0 32 M0 32 C0 10.67, 10.67 0, 32 0 M0 32 C0 10.67, 10.67 0, 32 0" stroke="#1e1e1e" stroke-width="2" fill="none"></path></g><g stroke-linecap="round" transform="translate(44.26656478580571 212.71498099613768) rotate(0 89.77475589250662 52.14453125)"><path d="M26.07 0 C69.32 0, 112.57 0, 153.48 0 M153.48 0 C170.86 0, 179.55 8.69, 179.55 26.07 M179.55 26.07 C179.55 41.86, 179.55 57.64, 179.55 78.22 M179.55 78.22 C179.55 95.6, 170.86 104.29, 153.48 104.29 M153.48 104.29 C117.37 104.29, 81.27 104.29, 26.07 104.29 M26.07 104.29 C8.69 104.29, 0 95.6, 0 78.22 M0 78.22 C0 62.55, 0 46.89, 0 26.07 M0 26.07 C0 8.69, 8.69 0, 26.07 0" stroke="#1e1e1e" stroke-width="2.5" fill="none" stroke-dasharray="1.5 8"></path></g><g transform="translate(87.91339099081233 253.35951224613768) rotate(0 46.1279296875 11.5)"><text x="46.1279296875" y="18.400390625" font-family="Helvetica, Segoe UI Emoji" font-size="20px" fill="#1e1e1e" text-anchor="middle" style="white-space: pre;" direction="ltr" dominant-baseline="alphabetic">MIDI Input</text></g><g stroke-linecap="round" transform="translate(42.44185273995845 90.2946554935661) rotate(0 91.033203125 49.150390625)"><path d="M24.58 0 C64.97 0, 105.36 0, 157.49 0 M24.58 0 C54.05 0, 83.52 0, 157.49 0 M157.49 0 C173.87 0, 182.07 8.19, 182.07 24.58 M157.49 0 C173.87 0, 182.07 8.19, 182.07 24.58 M182.07 24.58 C182.07 39.57, 182.07 54.56, 182.07 73.73 M182.07 24.58 C182.07 43.35, 182.07 62.13, 182.07 73.73 M182.07 73.73 C182.07 90.11, 173.87 98.3, 157.49 98.3 M182.07 73.73 C182.07 90.11, 173.87 98.3, 157.49 98.3 M157.49 98.3 C130.8 98.3, 104.1 98.3, 24.58 98.3 M157.49 98.3 C120.72 98.3, 83.95 98.3, 24.58 98.3 M24.58 98.3 C8.19 98.3, 0 90.11, 0 73.73 M24.58 98.3 C8.19 98.3, 0 90.11, 0 73.73 M0 73.73 C0 60.57, 0 47.42, 0 24.58 M0 73.73 C0 63.08, 0 52.44, 0 24.58 M0 24.58 C0 8.19, 8.19 0, 24.58 0 M0 24.58 C0 8.19, 8.19 0, 24.58 0" stroke="#1e1e1e" stroke-width="2" fill="none"></path></g><g transform="translate(79.56880586495845 127.9450461185661) rotate(0 53.90625 11.5)"><text x="53.90625" y="18.400390625" font-family="Helvetica, Segoe UI Emoji" font-size="20px" fill="#1e1e1e" text-anchor="middle" style="white-space: pre;" direction="ltr" dominant-baseline="alphabetic">MIDI Output</text></g><g transform="translate(64.75500128668136 10) rotate(0 67.8271484375 11.5)"><text x="0" y="18.400390625" font-family="Helvetica, Segoe UI Emoji" font-size="20px" fill="#1e1e1e" text-anchor="start" style="white-space: pre;" direction="ltr" dominant-baseline="alphabetic">Ableton Push 2</text></g><g stroke-linecap="round" transform="translate(45.296594430406 341.35997607402555) rotate(0 89.83173621275455 48.501697993820244)"><path d="M24.25 0 C54.21 0, 84.17 0, 155.41 0 M155.41 0 C171.58 0, 179.66 8.08, 179.66 24.25 M179.66 24.25 C179.66 37.3, 179.66 50.35, 179.66 72.75 M179.66 72.75 C179.66 88.92, 171.58 97, 155.41 97 M155.41 97 C122.34 97, 89.28 97, 24.25 97 M24.25 97 C8.08 97, 0 88.92, 0 72.75 M0 72.75 C0 58.03, 0 43.31, 0 24.25 M0 24.25 C0 8.08, 8.08 0, 24.25 0" stroke="#1e1e1e" stroke-width="2.5" fill="none" stroke-dasharray="1.5 8"></path></g><g transform="translate(61.656300003512115 378.5134524192222) rotate(0 73.47203063964844 11.348221648623621)"><text x="73.47203063964844" y="18.157540107283154" font-family="Helvetica, Segoe UI Emoji" font-size="19.736037649780226px" fill="#1e1e1e" text-anchor="middle" style="white-space: pre;" direction="ltr" dominant-baseline="alphabetic">Display Interface</text></g><g mask="url(#mask-dCexeCl8nuoVzWqQWBri9)" stroke-linecap="round"><g transform="translate(237.449321359436 261.6230033835552) rotate(0 146.81649939641466 -42.98463330155994)"><path d="M0 0 C25.03 -3.51, 101.23 -6.74, 150.17 -21.07 C199.11 -35.4, 269.72 -75.15, 293.63 -85.97 M0 0 C25.03 -3.51, 101.23 -6.74, 150.17 -21.07 C199.11 -35.4, 269.72 -75.15, 293.63 -85.97" stroke="#1e1e1e" stroke-width="2" fill="none"></path></g><g transform="translate(237.449321359436 261.6230033835552) rotate(0 146.81649939641466 -42.98463330155994)"><path d="M22.44 -11.02 C17.86 -8.77, 13.28 -6.52, 0 0 M22.44 -11.02 C16.98 -8.33, 11.51 -5.65, 0 0" stroke="#1e1e1e" stroke-width="2" fill="none"></path></g><g transform="translate(237.449321359436 261.6230033835552) rotate(0 146.81649939641466 -42.98463330155994)"><path d="M24.27 5.99 C19.32 4.76, 14.36 3.54, 0 0 M24.27 5.99 C18.36 4.53, 12.45 3.07, 0 0" stroke="#1e1e1e" stroke-width="2" fill="none"></path></g></g><mask id="mask-dCexeCl8nuoVzWqQWBri9"><rect x="0" y="0" fill="#fff" width="631.0823201522653" height="447.5922699866751"></rect><rect x="341.48239874713727" y="217.5498574979954" fill="#000" width="92.275390625" height="46" opacity="1"></rect></mask><g transform="translate(341.48239874713727 217.5498574979954) rotate(0 42.78342200871339 1.0885125839998864)"><text x="46.1376953125" y="18.400390625" font-family="Helvetica, Segoe UI Emoji" font-size="20px" fill="#1e1e1e" text-anchor="middle" style="white-space: pre;" direction="ltr" dominant-baseline="alphabetic">Update</text><text x="46.1376953125" y="41.400390625" font-family="Helvetica, Segoe UI Emoji" font-size="20px" fill="#1e1e1e" text-anchor="middle" style="white-space: pre;" direction="ltr" dominant-baseline="alphabetic">pad colors</text></g><g mask="url(#mask-CMxtoh5y6FDZtDX4wMUFV)" stroke-linecap="round"><g transform="translate(231.59004882271984 393.3132383217792) rotate(0 184.107756492941 -79.01580499020338)"><path d="M0 0 C26.68 -1.08, 98.72 19.83, 160.08 -6.51 C221.45 -32.85, 333.53 -132.78, 368.22 -158.03 M0 0 C26.68 -1.08, 98.72 19.83, 160.08 -6.51 C221.45 -32.85, 333.53 -132.78, 368.22 -158.03" stroke="#1e1e1e" stroke-width="2" fill="none"></path></g><g transform="translate(231.59004882271984 393.3132383217792) rotate(0 184.107756492941 -79.01580499020338)"><path d="M23.97 -7.11 C18.64 -5.52, 13.3 -3.94, 0 0 M23.97 -7.11 C18.66 -5.53, 13.35 -3.96, 0 0" stroke="#1e1e1e" stroke-width="2" fill="none"></path></g><g transform="translate(231.59004882271984 393.3132383217792) rotate(0 184.107756492941 -79.01580499020338)"><path d="M22.93 9.96 C17.83 7.75, 12.73 5.53, 0 0 M22.93 9.96 C17.85 7.76, 12.77 5.55, 0 0" stroke="#1e1e1e" stroke-width="2" fill="none"></path></g></g><mask id="mask-CMxtoh5y6FDZtDX4wMUFV"><rect x="0" y="0" fill="#fff" width="699.8055618086019" height="651.3448483021859"></rect><rect x="336.08884405963636" y="363.80506583132865" fill="#000" width="111.171875" height="46" opacity="1"></rect></mask><g transform="translate(336.08884405963636 363.80506583132865) rotate(0 79.60896125602449 -46.08054514574496)"><text x="55.5859375" y="18.400390625" font-family="Helvetica, Segoe UI Emoji" font-size="20px" fill="#1e1e1e" text-anchor="middle" style="white-space: pre;" direction="ltr" dominant-baseline="alphabetic">Update</text><text x="55.5859375" y="41.400390625" font-family="Helvetica, Segoe UI Emoji" font-size="20px" fill="#1e1e1e" text-anchor="middle" style="white-space: pre;" direction="ltr" dominant-baseline="alphabetic">Push screen</text></g><g stroke-linecap="round" transform="translate(375.74509405963727 29.969128331328648) rotate(0 15.195153061224573 15.51171875)"><path d="M30.39 15.51 C30.39 16.41, 30.31 17.32, 30.16 18.21 C30.01 19.09, 29.77 19.97, 29.47 20.82 C29.17 21.66, 28.79 22.49, 28.35 23.27 C27.91 24.05, 27.4 24.79, 26.84 25.48 C26.27 26.17, 25.64 26.82, 24.96 27.39 C24.29 27.97, 23.55 28.5, 22.79 28.95 C22.03 29.39, 21.22 29.78, 20.39 30.09 C19.57 30.4, 18.7 30.63, 17.83 30.79 C16.97 30.94, 16.07 31.02, 15.2 31.02 C14.32 31.02, 13.42 30.94, 12.56 30.79 C11.69 30.63, 10.82 30.4, 10 30.09 C9.17 29.78, 8.36 29.39, 7.6 28.95 C6.84 28.5, 6.1 27.97, 5.43 27.39 C4.75 26.82, 4.12 26.17, 3.55 25.48 C2.99 24.79, 2.48 24.05, 2.04 23.27 C1.6 22.49, 1.22 21.66, 0.92 20.82 C0.62 19.97, 0.38 19.09, 0.23 18.21 C0.08 17.32, 0 16.41, 0 15.51 C0 14.61, 0.08 13.7, 0.23 12.82 C0.38 11.93, 0.62 11.05, 0.92 10.21 C1.22 9.36, 1.6 8.53, 2.04 7.76 C2.48 6.98, 2.99 6.23, 3.55 5.54 C4.12 4.85, 4.75 4.21, 5.43 3.63 C6.1 3.05, 6.84 2.53, 7.6 2.08 C8.36 1.63, 9.17 1.24, 10 0.94 C10.82 0.63, 11.69 0.39, 12.56 0.24 C13.42 0.08, 14.32 0, 15.2 0 C16.07 0, 16.97 0.08, 17.83 0.24 C18.7 0.39, 19.57 0.63, 20.39 0.94 C21.22 1.24, 22.03 1.63, 22.79 2.08 C23.55 2.53, 24.29 3.05, 24.96 3.63 C25.64 4.21, 26.27 4.85, 26.84 5.54 C27.4 6.23, 27.91 6.98, 28.35 7.76 C28.79 8.53, 29.17 9.36, 29.47 10.21 C29.77 11.05, 30.01 11.93, 30.16 12.82 C30.31 13.7, 30.35 15.06, 30.39 15.51 C30.43 15.96, 30.43 15.06, 30.39 15.51" stroke="none" stroke-width="0" fill="#1971e9"></path><path d="M30.39 15.51 C30.39 16.41, 30.31 17.32, 30.16 18.21 C30.01 19.09, 29.77 19.97, 29.47 20.82 C29.17 21.66, 28.79 22.49, 28.35 23.27 C27.91 24.05, 27.4 24.79, 26.84 25.48 C26.27 26.17, 25.64 26.82, 24.96 27.39 C24.29 27.97, 23.55 28.5, 22.79 28.95 C22.03 29.39, 21.22 29.78, 20.39 30.09 C19.57 30.4, 18.7 30.63, 17.83 30.79 C16.97 30.94, 16.07 31.02, 15.2 31.02 C14.32 31.02, 13.42 30.94, 12.56 30.79 C11.69 30.63, 10.82 30.4, 10 30.09 C9.17 29.78, 8.36 29.39, 7.6 28.95 C6.84 28.5, 6.1 27.97, 5.43 27.39 C4.75 26.82, 4.12 26.17, 3.55 25.48 C2.99 24.79, 2.48 24.05, 2.04 23.27 C1.6 22.49, 1.22 21.66, 0.92 20.82 C0.62 19.97, 0.38 19.09, 0.23 18.21 C0.08 17.32, 0 16.41, 0 15.51 C0 14.61, 0.08 13.7, 0.23 12.82 C0.38 11.93, 0.62 11.05, 0.92 10.21 C1.22 9.36, 1.6 8.53, 2.04 7.76 C2.48 6.98, 2.99 6.23, 3.55 5.54 C4.12 4.85, 4.75 4.21, 5.43 3.63 C6.1 3.05, 6.84 2.53, 7.6 2.08 C8.36 1.63, 9.17 1.24, 10 0.94 C10.82 0.63, 11.69 0.39, 12.56 0.24 C13.42 0.08, 14.32 0, 15.2 0 C16.07 0, 16.97 0.08, 17.83 0.24 C18.7 0.39, 19.57 0.63, 20.39 0.94 C21.22 1.24, 22.03 1.63, 22.79 2.08 C23.55 2.53, 24.29 3.05, 24.96 3.63 C25.64 4.21, 26.27 4.85, 26.84 5.54 C27.4 6.23, 27.91 6.98, 28.35 7.76 C28.79 8.53, 29.17 9.36, 29.47 10.21 C29.77 11.05, 30.01 11.93, 30.16 12.82 C30.31 13.7, 30.35 15.06, 30.39 15.51 C30.43 15.96, 30.43 15.06, 30.39 15.51" stroke="#ffffff" stroke-width="1" fill="none"></path></g><g transform="translate(387.9564901018184 39.3100965442718) rotate(0 2.9837570190429688 6.170750537056961)"><text x="2.9837570190429688" y="9.873410463589227" font-family="Helvetica, Segoe UI Emoji" font-size="10.731740064446843px" fill="#ffffff" text-anchor="middle" style="white-space: pre;" direction="ltr" dominant-baseline="alphabetic">1</text></g><g stroke-linecap="round" transform="translate(372.3596773929712 187.4508991646619) rotate(0 15.52008928571422 14.911458333333371)"><path d="M31.04 14.91 C31.04 15.77, 30.96 16.65, 30.8 17.5 C30.65 18.35, 30.41 19.2, 30.1 20.01 C29.8 20.82, 29.41 21.62, 28.96 22.37 C28.51 23.11, 27.99 23.84, 27.41 24.5 C26.83 25.16, 26.18 25.78, 25.5 26.33 C24.81 26.89, 24.06 27.39, 23.28 27.83 C22.5 28.26, 21.67 28.63, 20.83 28.92 C19.98 29.22, 19.1 29.45, 18.22 29.6 C17.33 29.75, 16.42 29.82, 15.52 29.82 C14.62 29.82, 13.71 29.75, 12.83 29.6 C11.94 29.45, 11.06 29.22, 10.21 28.92 C9.37 28.63, 8.54 28.26, 7.76 27.83 C6.98 27.39, 6.23 26.89, 5.54 26.33 C4.86 25.78, 4.21 25.16, 3.63 24.5 C3.05 23.84, 2.53 23.11, 2.08 22.37 C1.63 21.62, 1.24 20.82, 0.94 20.01 C0.63 19.2, 0.39 18.35, 0.24 17.5 C0.08 16.65, 0 15.77, 0 14.91 C0 14.05, 0.08 13.17, 0.24 12.32 C0.39 11.47, 0.63 10.62, 0.94 9.81 C1.24 9, 1.63 8.2, 2.08 7.46 C2.53 6.71, 3.05 5.99, 3.63 5.33 C4.21 4.67, 4.86 4.04, 5.54 3.49 C6.23 2.93, 6.98 2.43, 7.76 2 C8.54 1.57, 9.37 1.19, 10.21 0.9 C11.06 0.6, 11.94 0.38, 12.83 0.23 C13.71 0.08, 14.62 0, 15.52 0 C16.42 0, 17.33 0.08, 18.22 0.23 C19.1 0.38, 19.98 0.6, 20.83 0.9 C21.67 1.19, 22.5 1.57, 23.28 2 C24.06 2.43, 24.81 2.93, 25.5 3.49 C26.18 4.04, 26.83 4.67, 27.41 5.33 C27.99 5.99, 28.51 6.71, 28.96 7.46 C29.41 8.2, 29.8 9, 30.1 9.81 C30.41 10.62, 30.65 11.47, 30.8 12.32 C30.96 13.17, 31 14.48, 31.04 14.91 C31.08 15.34, 31.08 14.48, 31.04 14.91" stroke="none" stroke-width="0" fill="#1971e9"></path><path d="M31.04 14.91 C31.04 15.77, 30.96 16.65, 30.8 17.5 C30.65 18.35, 30.41 19.2, 30.1 20.01 C29.8 20.82, 29.41 21.62, 28.96 22.37 C28.51 23.11, 27.99 23.84, 27.41 24.5 C26.83 25.16, 26.18 25.78, 25.5 26.33 C24.81 26.89, 24.06 27.39, 23.28 27.83 C22.5 28.26, 21.67 28.63, 20.83 28.92 C19.98 29.22, 19.1 29.45, 18.22 29.6 C17.33 29.75, 16.42 29.82, 15.52 29.82 C14.62 29.82, 13.71 29.75, 12.83 29.6 C11.94 29.45, 11.06 29.22, 10.21 28.92 C9.37 28.63, 8.54 28.26, 7.76 27.83 C6.98 27.39, 6.23 26.89, 5.54 26.33 C4.86 25.78, 4.21 25.16, 3.63 24.5 C3.05 23.84, 2.53 23.11, 2.08 22.37 C1.63 21.62, 1.24 20.82, 0.94 20.01 C0.63 19.2, 0.39 18.35, 0.24 17.5 C0.08 16.65, 0 15.77, 0 14.91 C0 14.05, 0.08 13.17, 0.24 12.32 C0.39 11.47, 0.63 10.62, 0.94 9.81 C1.24 9, 1.63 8.2, 2.08 7.46 C2.53 6.71, 3.05 5.99, 3.63 5.33 C4.21 4.67, 4.86 4.04, 5.54 3.49 C6.23 2.93, 6.98 2.43, 7.76 2 C8.54 1.57, 9.37 1.19, 10.21 0.9 C11.06 0.6, 11.94 0.38, 12.83 0.23 C13.71 0.08, 14.62 0, 15.52 0 C16.42 0, 17.33 0.08, 18.22 0.23 C19.1 0.38, 19.98 0.6, 20.83 0.9 C21.67 1.19, 22.5 1.57, 23.28 2 C24.06 2.43, 24.81 2.93, 25.5 3.49 C26.18 4.04, 26.83 4.67, 27.41 5.33 C27.99 5.99, 28.51 6.71, 28.96 7.46 C29.41 8.2, 29.8 9, 30.1 9.81 C30.41 10.62, 30.65 11.47, 30.8 12.32 C30.96 13.17, 31 14.48, 31.04 14.91 C31.08 15.34, 31.08 14.48, 31.04 14.91" stroke="#ffffff" stroke-width="1" fill="none"></path></g><g transform="translate(384.13686201559995 194.6208620329537) rotate(0 3.7429046630859375 7.74149546504168)"><text x="3.7429046630859375" y="12.386655702472408" font-family="Helvetica, Segoe UI Emoji" font-size="13.463470373985508px" fill="#ffffff" text-anchor="middle" style="white-space: pre;" direction="ltr" dominant-baseline="alphabetic">2</text></g><g stroke-linecap="round" transform="translate(840.0445732263042 95.24516999799516) rotate(0 16.928172831632764 16.264322916666742)"><path d="M33.86 16.26 C33.86 17.21, 33.77 18.16, 33.6 19.09 C33.43 20.02, 33.17 20.94, 32.84 21.83 C32.5 22.71, 32.08 23.58, 31.59 24.4 C31.1 25.21, 30.53 26, 29.9 26.72 C29.27 27.44, 28.56 28.12, 27.81 28.72 C27.06 29.33, 26.24 29.88, 25.39 30.35 C24.54 30.82, 23.64 31.23, 22.72 31.55 C21.8 31.87, 20.83 32.12, 19.87 32.28 C18.9 32.45, 17.91 32.53, 16.93 32.53 C15.95 32.53, 14.95 32.45, 13.99 32.28 C13.02 32.12, 12.06 31.87, 11.14 31.55 C10.22 31.23, 9.31 30.82, 8.46 30.35 C7.62 29.88, 6.8 29.33, 6.05 28.72 C5.3 28.12, 4.59 27.44, 3.96 26.72 C3.33 26, 2.76 25.21, 2.27 24.4 C1.78 23.58, 1.36 22.71, 1.02 21.83 C0.69 20.94, 0.43 20.02, 0.26 19.09 C0.09 18.16, 0 17.21, 0 16.26 C0 15.32, 0.09 14.37, 0.26 13.44 C0.43 12.51, 0.69 11.59, 1.02 10.7 C1.36 9.82, 1.78 8.95, 2.27 8.13 C2.76 7.32, 3.33 6.53, 3.96 5.81 C4.59 5.09, 5.3 4.41, 6.05 3.81 C6.8 3.2, 7.62 2.65, 8.46 2.18 C9.31 1.71, 10.22 1.3, 11.14 0.98 C12.06 0.66, 13.02 0.41, 13.99 0.25 C14.95 0.08, 15.95 0, 16.93 0 C17.91 0, 18.9 0.08, 19.87 0.25 C20.83 0.41, 21.8 0.66, 22.72 0.98 C23.64 1.3, 24.54 1.71, 25.39 2.18 C26.24 2.65, 27.06 3.2, 27.81 3.81 C28.56 4.41, 29.27 5.09, 29.9 5.81 C30.53 6.53, 31.1 7.32, 31.59 8.13 C32.08 8.95, 32.5 9.82, 32.84 10.7 C33.17 11.59, 33.43 12.51, 33.6 13.44 C33.77 14.37, 33.81 15.79, 33.86 16.26 C33.9 16.74, 33.9 15.79, 33.86 16.26" stroke="none" stroke-width="0" fill="#1971e9"></path><path d="M33.86 16.26 C33.86 17.21, 33.77 18.16, 33.6 19.09 C33.43 20.02, 33.17 20.94, 32.84 21.83 C32.5 22.71, 32.08 23.58, 31.59 24.4 C31.1 25.21, 30.53 26, 29.9 26.72 C29.27 27.44, 28.56 28.12, 27.81 28.72 C27.06 29.33, 26.24 29.88, 25.39 30.35 C24.54 30.82, 23.64 31.23, 22.72 31.55 C21.8 31.87, 20.83 32.12, 19.87 32.28 C18.9 32.45, 17.91 32.53, 16.93 32.53 C15.95 32.53, 14.95 32.45, 13.99 32.28 C13.02 32.12, 12.06 31.87, 11.14 31.55 C10.22 31.23, 9.31 30.82, 8.46 30.35 C7.62 29.88, 6.8 29.33, 6.05 28.72 C5.3 28.12, 4.59 27.44, 3.96 26.72 C3.33 26, 2.76 25.21, 2.27 24.4 C1.78 23.58, 1.36 22.71, 1.02 21.83 C0.69 20.94, 0.43 20.02, 0.26 19.09 C0.09 18.16, 0 17.21, 0 16.26 C0 15.32, 0.09 14.37, 0.26 13.44 C0.43 12.51, 0.69 11.59, 1.02 10.7 C1.36 9.82, 1.78 8.95, 2.27 8.13 C2.76 7.32, 3.33 6.53, 3.96 5.81 C4.59 5.09, 5.3 4.41, 6.05 3.81 C6.8 3.2, 7.62 2.65, 8.46 2.18 C9.31 1.71, 10.22 1.3, 11.14 0.98 C12.06 0.66, 13.02 0.41, 13.99 0.25 C14.95 0.08, 15.95 0, 16.93 0 C17.91 0, 18.9 0.08, 19.87 0.25 C20.83 0.41, 21.8 0.66, 22.72 0.98 C23.64 1.3, 24.54 1.71, 25.39 2.18 C26.24 2.65, 27.06 3.2, 27.81 3.81 C28.56 4.41, 29.27 5.09, 29.9 5.81 C30.53 6.53, 31.1 7.32, 31.59 8.13 C32.08 8.95, 32.5 9.82, 32.84 10.7 C33.17 11.59, 33.43 12.51, 33.6 13.44 C33.77 14.37, 33.81 15.79, 33.86 16.26 C33.9 16.74, 33.9 15.79, 33.86 16.26" stroke="#ffffff" stroke-width="1" fill="none"></path></g><g transform="translate(853.7387220100854 104.81807888716071) rotate(0 3.2340240478515625 6.69141402750131)"><text x="3.2340240478515625" y="10.706489733880712" font-family="Helvetica, Segoe UI Emoji" font-size="11.637241786958763px" fill="#ffffff" text-anchor="middle" style="white-space: pre;" direction="ltr" dominant-baseline="alphabetic">3</text></g><g stroke-linecap="round" transform="translate(374.367489892973 323.9795449979954) rotate(0 17.006776147959044 16.33984375)"><path d="M34.01 16.34 C34.01 17.29, 33.93 18.25, 33.76 19.18 C33.58 20.11, 33.32 21.04, 32.99 21.93 C32.65 22.82, 32.23 23.69, 31.74 24.51 C31.24 25.33, 30.67 26.12, 30.03 26.84 C29.4 27.57, 28.69 28.25, 27.94 28.86 C27.18 29.46, 26.36 30.02, 25.51 30.49 C24.66 30.96, 23.75 31.37, 22.82 31.69 C21.9 32.02, 20.93 32.27, 19.96 32.43 C18.99 32.6, 17.99 32.68, 17.01 32.68 C16.02 32.68, 15.02 32.6, 14.05 32.43 C13.08 32.27, 12.12 32.02, 11.19 31.69 C10.27 31.37, 9.36 30.96, 8.5 30.49 C7.65 30.02, 6.83 29.46, 6.08 28.86 C5.32 28.25, 4.61 27.57, 3.98 26.84 C3.35 26.12, 2.77 25.33, 2.28 24.51 C1.79 23.69, 1.36 22.82, 1.03 21.93 C0.69 21.04, 0.43 20.11, 0.26 19.18 C0.09 18.25, 0 17.29, 0 16.34 C0 15.39, 0.09 14.43, 0.26 13.5 C0.43 12.57, 0.69 11.64, 1.03 10.75 C1.36 9.86, 1.79 8.99, 2.28 8.17 C2.77 7.35, 3.35 6.56, 3.98 5.84 C4.61 5.11, 5.32 4.43, 6.08 3.82 C6.83 3.21, 7.65 2.66, 8.5 2.19 C9.36 1.72, 10.27 1.31, 11.19 0.99 C12.12 0.66, 13.08 0.41, 14.05 0.25 C15.02 0.08, 16.02 0, 17.01 0 C17.99 0, 18.99 0.08, 19.96 0.25 C20.93 0.41, 21.9 0.66, 22.82 0.99 C23.75 1.31, 24.66 1.72, 25.51 2.19 C26.36 2.66, 27.18 3.21, 27.94 3.82 C28.69 4.43, 29.4 5.11, 30.03 5.84 C30.67 6.56, 31.24 7.35, 31.74 8.17 C32.23 8.99, 32.65 9.86, 32.99 10.75 C33.32 11.64, 33.58 12.57, 33.76 13.5 C33.93 14.43, 33.97 15.87, 34.01 16.34 C34.06 16.81, 34.06 15.87, 34.01 16.34" stroke="none" stroke-width="0" fill="#1971e9"></path><path d="M34.01 16.34 C34.01 17.29, 33.93 18.25, 33.76 19.18 C33.58 20.11, 33.32 21.04, 32.99 21.93 C32.65 22.82, 32.23 23.69, 31.74 24.51 C31.24 25.33, 30.67 26.12, 30.03 26.84 C29.4 27.57, 28.69 28.25, 27.94 28.86 C27.18 29.46, 26.36 30.02, 25.51 30.49 C24.66 30.96, 23.75 31.37, 22.82 31.69 C21.9 32.02, 20.93 32.27, 19.96 32.43 C18.99 32.6, 17.99 32.68, 17.01 32.68 C16.02 32.68, 15.02 32.6, 14.05 32.43 C13.08 32.27, 12.12 32.02, 11.19 31.69 C10.27 31.37, 9.36 30.96, 8.5 30.49 C7.65 30.02, 6.83 29.46, 6.08 28.86 C5.32 28.25, 4.61 27.57, 3.98 26.84 C3.35 26.12, 2.77 25.33, 2.28 24.51 C1.79 23.69, 1.36 22.82, 1.03 21.93 C0.69 21.04, 0.43 20.11, 0.26 19.18 C0.09 18.25, 0 17.29, 0 16.34 C0 15.39, 0.09 14.43, 0.26 13.5 C0.43 12.57, 0.69 11.64, 1.03 10.75 C1.36 9.86, 1.79 8.99, 2.28 8.17 C2.77 7.35, 3.35 6.56, 3.98 5.84 C4.61 5.11, 5.32 4.43, 6.08 3.82 C6.83 3.21, 7.65 2.66, 8.5 2.19 C9.36 1.72, 10.27 1.31, 11.19 0.99 C12.12 0.66, 13.08 0.41, 14.05 0.25 C15.02 0.08, 16.02 0, 17.01 0 C17.99 0, 18.99 0.08, 19.96 0.25 C20.93 0.41, 21.9 0.66, 22.82 0.99 C23.75 1.31, 24.66 1.72, 25.51 2.19 C26.36 2.66, 27.18 3.21, 27.94 3.82 C28.69 4.43, 29.4 5.11, 30.03 5.84 C30.67 6.56, 31.24 7.35, 31.74 8.17 C32.23 8.99, 32.65 9.86, 32.99 10.75 C33.32 11.64, 33.58 12.57, 33.76 13.5 C33.93 14.43, 33.97 15.87, 34.01 16.34 C34.06 16.81, 34.06 15.87, 34.01 16.34" stroke="#ffffff" stroke-width="1" fill="none"></path></g><g transform="translate(388.11799467862784 333.58388017718903) rotate(0 3.2562713623046875 6.73550857080636)"><text x="3.2562713623046875" y="10.777042500945448" font-family="Helvetica, Segoe UI Emoji" font-size="11.71392794922847px" fill="#ffffff" text-anchor="middle" style="white-space: pre;" direction="ltr" dominant-baseline="alphabetic">4</text></g></svg>