<svg viewBox="0 0 977 874" xmlns="http://www.w3.org/2000/svg" style="fill-rule:evenodd;clip-rule:evenodd;stroke-linejoin:round;stroke-miterlimit:2;">
    <style>
        .fill-path { fill: black; }
        .stroke-path { fill: none; stroke: black; stroke-width: 6.26px; }
        @media (prefers-color-scheme: dark) {
            .fill-path { fill: white; }
            .stroke-path { stroke: white; }
        }
    </style>
    <g transform="matrix(1.6,0,0,1.742483,-1308.672656,-5973.198999)">
        <path class="fill-path" d="M817.92,3929.018L817.92,3427.982L970.264,3427.982L970.264,3487.51C981.983,3473.611 1148.975,3427.982 1148.975,3427.982L1325.123,3427.982L1134.693,3643.192L1335.376,3929.018L1161.06,3929.018L1036.548,3821.808L970.264,3896.459L970.264,3929.018L817.92,3929.018Z" style="fill-rule:nonzero;"/>
    </g>
    <g transform="matrix(1.6,0,0,1.727349,-1161.135964,-5913.738353)">
        <path class="stroke-path" d="M815.456,3925.771L817.92,3427.982L970.264,3427.982L970.264,3487.51C981.983,3473.611 1148.975,3427.982 1148.975,3427.982L1325.123,3427.982L1134.693,3643.192L1332.912,3925.771L1158.596,3925.771L1036.548,3821.808L970.264,3896.459L967.8,3925.771L815.456,3925.771Z" style="fill-rule:nonzero;"/>
    </g>
</svg>
